# xmcd
#
# Track frame offsets:
#	150
#	11887
#	26158
#	56707
#	73288
#	88613
#	103004
#	117162
#	131512
#	142210
#	166807
#	180317
#	194893
#	215132
#	226110
#	240370
#
# Disc length: 3424 seconds
#
# Revision: 3
# Processed by: cddbd v1.5.2PL0 Copyright (c) Steve Scherf et al.
# Submitted via: audiograbber 1.83.01
#
DISCID=ec0d5e10
DTITLE=Tomislav Goluban and Little Pigeon's ForHill Blues - Mr. B.
DYEAR=2007
DGENRE=Blues
TTITLE0=T-Train Kick
TTITLE1=Zagorski cug
TTITLE2=Mr. B.
TTITLE3=0,5
TTITLE4=Country Party
TTITLE5=Sv. Rok
TTITLE6=Golden Fish
TTITLE7=Liza Jane
TTITLE8=Brag to Brag
TTITLE9=See You Later Alligator
TTITLE10=Polka Blues
TTITLE11=Spread the News Around
TTITLE12=Jesus on the Mainline
TTITLE13=AP/LP Low Voltage
TTITLE14=ForHill Train
TTITLE15=0,5 Jam
EXTD=
EXTT0=
EXTT1=
EXTT2=
EXTT3=
EXTT4=
EXTT5=
EXTT6=
EXTT7=
EXTT8=
EXTT9=
EXTT10=
EXTT11=
EXTT12=
EXTT13=
EXTT14=
EXTT15=
PLAYORDER=
